<svg width="1200" height="760" viewBox="0 0 1200 760" fill="none" xmlns="http://www.w3.org/2000/svg">
  <rect width="1200" height="760" fill="#EEF2FF"/>
  <rect x="0" y="530" width="1200" height="230" fill="#E0E7FF"/>
  <rect x="180" y="430" width="840" height="24" rx="12" fill="#4F46E5"/>
  <rect x="236" y="454" width="18" height="182" fill="#4338CA"/>
  <rect x="946" y="454" width="18" height="182" fill="#4338CA"/>
  <rect x="370" y="336" width="280" height="170" rx="18" fill="#312E81"/>
  <rect x="388" y="354" width="244" height="124" rx="12" fill="#1E1B4B"/>
  <circle cx="510" cy="568" r="64" fill="#7C3AED"/>
  <rect x="704" y="340" width="186" height="114" rx="16" fill="white" stroke="#A78BFA" stroke-width="6"/>
  <rect x="728" y="372" width="80" height="12" rx="6" fill="#C4B5FD"/>
  <rect x="728" y="398" width="124" height="12" rx="6" fill="#DDD6FE"/>
  <rect x="174" y="340" width="170" height="104" rx="16" fill="#F8FAFC" stroke="#C7D2FE" stroke-width="6"/>
  <rect x="198" y="372" width="112" height="12" rx="6" fill="#C4B5FD"/>
  <rect x="198" y="398" width="94" height="12" rx="6" fill="#DDD6FE"/>
</svg>
